<svg width="16" height="18" viewBox="0 0 16 18" fill="none" xmlns="http://www.w3.org/2000/svg">
<path d="M2.16667 17.3334H13.8333C14.7525 17.3334 15.5 16.5859 15.5 15.6667V6.50002C15.5 6.27901 15.4122 6.06705 15.2559 5.91077C15.0996 5.75448 14.8877 5.66669 14.6667 5.66669H12.1667V4.83335C12.1667 2.53585 10.2975 0.666687 8 0.666687C5.7025 0.666687 3.83333 2.53585 3.83333 4.83335V5.66669H1.33333C1.11232 5.66669 0.900358 5.75448 0.744078 5.91077C0.587797 6.06705 0.5 6.27901 0.5 6.50002V15.6667C0.5 16.5859 1.2475 17.3334 2.16667 17.3334ZM5.5 4.83335C5.5 3.45502 6.62167 2.33335 8 2.33335C9.37833 2.33335 10.5 3.45502 10.5 4.83335V5.66669H5.5V4.83335ZM2.16667 7.33335H3.83333V9.00002H5.5V7.33335H10.5V9.00002H12.1667V7.33335H13.8333L13.835 15.6667H2.16667V7.33335Z" fill="#FFB568"/>
</svg>
